M48
INCH
T01C0.0287
T02C0.03
T03C0.0335
T04C0.035
T05C0.0354
T06C0.0354
T07C0.0417
%
T01
X-003538Y+002375
X-006712Y+002375
X-007288Y+000750
X-010462Y+000750
T02
X-004850Y+006125
X-003650Y+006125
X-009750Y-001125
X-009750Y-002125
X-005035Y-005500
X-002500Y-007250
X-001500Y-007250
T03
X-005035Y-006500
X-005035Y-007500
T04
X-006875Y+004036
X-008625Y+004086
X-008625Y+003086
X-008625Y+002086
X-008625Y+005086
X-008525Y+006286
X-011725Y+006286
X-011625Y+005086
X-011625Y+004086
X-011625Y+003086
X-011625Y+002086
X-011875Y+000725
X-013875Y+000725
X-013650Y+002375
X-012900Y+004125
X-013650Y+005625
X-017100Y+004125
X-017850Y+005625
X-017850Y+002375
X-017375Y-000750
X-016375Y-000750
X-018375Y-000750
X-018375Y-003750
X-017375Y-003750
X-016375Y-003750
X-013875Y-002475
X-011875Y-002475
X-005500Y-001250
X-003500Y-001250
X-001125Y+000225
X-001000Y+003400
X-001000Y+006600
X-004875Y+004036
X-001125Y-003975
X-006400Y-011750
X-010600Y-011750
X-016000Y-010875
X-017250Y-011725
X-018625Y-011725
X-016000Y-008875
X-017250Y-007525
X-018625Y-007525
T05
X-001375Y-011250
T06
X-005375Y-010250
X-007150Y-009260
X-012350Y-011240
X-012350Y-003740
X-007150Y-001760
X-001375Y-009250
T07
X-014500Y-005187
X-014500Y-009313
T00
M30
