G04 DipTrace 5.0.0.1*
G04 KocBottom.gbr*
%MOIN*%
G04 #@! TF.FileFunction,Copper,L2,Bot*
G04 #@! TF.Part,Single*
G04 #@! TA.AperFunction,CopperBalancing*
%ADD13C,0.02*%
%ADD14C,0.025*%
G04 #@! TA.AperFunction,ComponentPad*
%ADD15C,0.09*%
%ADD16R,0.09X0.09*%
%ADD17R,0.12X0.12*%
%ADD18C,0.12*%
%ADD19R,0.1X0.1*%
%ADD20R,0.13X0.08*%
%ADD21O,0.13X0.08*%
%ADD22R,0.09X0.06*%
%ADD23O,0.09X0.06*%
%ADD24R,0.08X0.13*%
%ADD25O,0.08X0.13*%
%FSLAX26Y26*%
G04*
G70*
G90*
G75*
G01*
G04 Bottom*
%LPD*%
X-852500Y628648D2*
G54D13*
Y518571D1*
X-862503Y508568D1*
X-365000Y612501D2*
Y510000D1*
X-471357Y403643D1*
X-487500D1*
X-862503Y508568D2*
X-941432D1*
X-975000Y475000D1*
Y350000D1*
X-933568Y308568D1*
X-862499D1*
X-862503Y508568D2*
X-533568D1*
X-487500Y462500D1*
Y403643D1*
X-1235007Y-1123995D2*
X-1111005D1*
X-1060000Y-1175000D1*
X-100004Y340000D2*
X-37500D1*
Y-82573D1*
X-79927Y-125000D1*
X-350000D1*
X-1235007Y-1123995D2*
X-1438505D1*
X-1550000Y-1012500D1*
X-1662500D1*
X-1700000Y-975000D1*
Y-850000D1*
X-1650000Y-800000D1*
Y-675000D1*
X-1612500Y-637500D1*
X-750000D1*
X-575000Y-462500D1*
X-433186D1*
X-412500D1*
X-375000Y-500000D1*
Y-637500D1*
X-387501Y-650001D1*
X-503500D1*
X-350000Y-125000D2*
Y-379314D1*
X-433186Y-462500D1*
X-1290000Y412530D2*
X-1166468D1*
X-1162501Y408563D1*
X-1290000Y412530D2*
Y277500D1*
X-1275000Y262500D1*
Y185000D1*
X-1387500Y72500D1*
X-1410000D1*
X-1574994Y237494D1*
X-1785000D1*
X-485000Y612498D2*
X-687498D1*
X-787500Y712500D1*
X-900000D1*
X-1062500Y550000D1*
Y417126D1*
X-1071063Y408563D1*
X-1162501D1*
X-1162497Y208563D2*
Y97503D1*
X-1187500Y72500D1*
X-1162499Y308563D2*
X-1083563D1*
X-1046199Y271199D1*
Y75000D1*
X-1387500Y-247500D2*
X-1187500D1*
Y-66301D1*
X-1046199Y75000D1*
X-1387500Y-247500D2*
X-1361501D1*
X-1235007Y-373995D1*
X-687500Y403643D2*
X-857576D1*
X-862501Y408568D1*
X-862497Y208568D2*
X-700128D1*
X-671199Y237497D1*
X-715007Y-175995D2*
Y-159993D1*
X-862497Y-12503D1*
Y208568D1*
X-975000Y-212500D2*
X-751512D1*
X-715007Y-175995D1*
X-975000Y-212500D2*
Y-112500D1*
X-728801Y75000D2*
Y100000D1*
X-587500D1*
X-449996Y237504D1*
X-353801D1*
X-1162503Y508563D2*
X-1311044D1*
X-1365000Y562519D1*
X-1172500Y628635D2*
Y518560D1*
X-1162503Y508563D1*
X-1365000Y562519D2*
Y237506D1*
X-1462506D1*
X-1525000Y300000D1*
X-1762500D1*
X-1787500Y325000D1*
X-1832573D1*
X-1875000Y282573D1*
Y204927D1*
X-1695073Y25000D1*
X-1637500D1*
Y-75000D1*
X-1710000Y412470D2*
X-1862530D1*
X-1925000Y350000D1*
Y137500D1*
X-1737500Y-50000D1*
Y-75000D1*
X-1785000Y562482D2*
X-1912518D1*
X-1962500Y512500D1*
Y0D1*
X-1887500Y-75000D1*
X-1837500D1*
Y-375000D2*
Y-727496D1*
X-1862504Y-752500D1*
X-1450005Y-518699D2*
Y-349995D1*
X-1562500Y-237500D1*
X-1812500D1*
X-1837500Y-262500D1*
Y-375000D1*
X-112500Y22500D2*
Y62500D1*
X-242570D1*
Y119930D1*
X-487500Y-125000D1*
X-550000D1*
Y-387500D1*
X-1012500D1*
X-1143699Y-518699D1*
X-1450005D1*
X-99996Y660000D2*
Y650004D1*
X-242570Y507430D1*
Y119930D1*
X-150000Y-724998D2*
Y-512500D1*
X-275000Y-387500D1*
Y-200000D1*
X0D1*
Y560004D1*
X-99996Y660000D1*
X-250000Y-725002D2*
X-150000D1*
Y-724998D1*
X-1862496Y-1172500D2*
X-1724996D1*
X-503497Y-750001D2*
Y-759003D1*
X-387497Y-875003D1*
Y-1057573D1*
X-429924Y-1100000D1*
X-687500D1*
X-825000Y-1237500D1*
X-1537500D1*
X-1602500Y-1172500D1*
X-1724996D1*
X-1600000Y-1087500D2*
X-1639996D1*
X-1724996Y-1172500D1*
X-1737500Y-375000D2*
X-1725004D1*
Y-752500D1*
X-537500Y-1025000D2*
Y-900001D1*
X-700000Y-737500D1*
X-1600000D1*
Y-887500D1*
X-700000Y-737500D2*
X-687500Y-725000D1*
Y-662500D1*
X-575001Y-550001D1*
X-503503D1*
X-640000Y-1175000D2*
X-187500D1*
X-137500Y-1125000D1*
X-112500Y-397500D2*
X-37500D1*
Y-825000D1*
X-137500Y-925000D1*
X-715007Y-925995D2*
X-1444689D1*
X-1449995Y-931301D1*
X-980497Y162501D2*
G54D14*
Y266404D1*
X-983197Y269101D1*
X-983199Y162496D1*
X-980496Y162500D1*
X-980462Y208566D2*
G54D13*
X-862497Y208568D1*
X-1111538Y-312369D2*
G54D14*
X-1080493D1*
X-869500D2*
X-676222D1*
X-1125659Y-337238D2*
X-1052988D1*
X-1120133Y-362106D2*
X-1078698D1*
X-1120259Y-386975D2*
X-1103567D1*
X-994987Y-461581D2*
X-671072D1*
X-1019854Y-486450D2*
X-690539D1*
X-1044722Y-511319D2*
X-715407D1*
X-1069591Y-536188D2*
X-740276D1*
X-1094458Y-561056D2*
X-765160D1*
X-1479029Y-809744D2*
X-719354D1*
X-1389013Y-834613D2*
X-783982D1*
X-1360252Y-859482D2*
X-808849D1*
X-1482827Y-823222D2*
X-1475173Y-821142D1*
X-1466110Y-819455D1*
X-1456941Y-818514D1*
X-1447724Y-818323D1*
X-1438522Y-818885D1*
X-1429398Y-820193D1*
X-1420411Y-822241D1*
X-1411619Y-825016D1*
X-1403084Y-828497D1*
X-1394861Y-832664D1*
X-1387004Y-837486D1*
X-1379567Y-842932D1*
X-1372598Y-848967D1*
X-1366146Y-855549D1*
X-1360249Y-862635D1*
X-1359996Y-862996D1*
X-808824Y-862995D1*
X-807517Y-861104D1*
X-801920Y-853780D1*
X-795744Y-846936D1*
X-789031Y-840618D1*
X-781827Y-834867D1*
X-774176Y-829724D1*
X-766133Y-825222D1*
X-757748Y-821390D1*
X-749080Y-818255D1*
X-740185Y-815836D1*
X-731122Y-814150D1*
X-721953Y-813209D1*
X-713555Y-813034D1*
X-726097Y-800499D1*
X-1480631Y-800500D1*
X-1482829Y-823171D1*
X-872000Y-295264D2*
Y-315500D1*
X-1078000D1*
Y-302896D1*
X-1107417Y-303987D1*
X-1109866Y-307307D1*
X-1115807Y-314314D1*
X-1122379Y-320734D1*
X-1129522Y-326510D1*
X-1131787Y-328014D1*
X-1131202Y-329344D1*
X-1130031Y-332171D1*
X-1128937Y-335029D1*
X-1127921Y-337916D1*
X-1126983Y-340828D1*
X-1126125Y-343766D1*
X-1125346Y-346726D1*
X-1124648Y-349705D1*
X-1124030Y-352702D1*
X-1123495Y-355715D1*
X-1123041Y-358741D1*
X-1122669Y-361780D1*
X-1122379Y-364825D1*
X-1122172Y-367879D1*
X-1122049Y-370937D1*
X-1122007Y-373995D1*
X-1122049Y-377056D1*
X-1122172Y-380114D1*
X-1122379Y-383168D1*
X-1122669Y-386214D1*
X-1123041Y-389252D1*
X-1123496Y-392278D1*
X-1124031Y-395291D1*
X-1124648Y-398289D1*
X-1125348Y-401268D1*
X-1126126Y-404227D1*
X-1126984Y-407164D1*
X-1127923Y-410077D1*
X-1128938Y-412965D1*
X-1130114Y-416018D1*
X-1057047Y-342953D1*
X-1050102Y-336953D1*
X-1042358Y-332025D1*
X-1033982Y-328276D1*
X-1025148Y-325782D1*
X-1016038Y-324600D1*
X-1003249Y-324500D1*
X-673304D1*
X-674560Y-287963D1*
X-781320Y-291909D1*
X-872000Y-295268D1*
X-1099131Y-563227D2*
X-986407Y-450500D1*
X-668955Y-450493D1*
X-668399Y-466804D1*
X-776096Y-574500D1*
X-1114448D1*
X-1112564Y-573469D1*
X-1104930Y-568357D1*
X-1099131Y-563227D1*
X-1122042Y-373995D2*
G54D13*
X-1235007D1*
X-1565430Y-161713D2*
G54D14*
X-1556042D1*
X-1902402Y-186581D2*
X-1873958D1*
X-1903066Y-211450D2*
X-1878049D1*
X-1544677Y-405699D2*
X-1539976D1*
X-1543308Y-345789D1*
X-1544667Y-344429D1*
X-1544500Y-350000D1*
Y-400000D1*
X-1544782Y-405705D1*
X-1906753Y-257000D2*
X-1900259D1*
X-1899832Y-253346D1*
X-1897840Y-244387D1*
X-1894568Y-235811D1*
X-1890084Y-227803D1*
X-1884479Y-220525D1*
X-1875798Y-211702D1*
X-1857041Y-192946D1*
X-1856633Y-191010D1*
X-1865514Y-188680D1*
X-1874123Y-185486D1*
X-1882375Y-181457D1*
X-1890189Y-176634D1*
X-1897491Y-171064D1*
X-1904331Y-164661D1*
X-1906759Y-257005D1*
X-1554631Y-142022D2*
X-1555614Y-144087D1*
X-1560361Y-151948D1*
X-1565860Y-159302D1*
X-1572058Y-166077D1*
X-1578892Y-172209D1*
X-1582025Y-174504D1*
X-1562500Y-174500D1*
X-1553337Y-175171D1*
X-1553268Y-166528D1*
X-1554619Y-142190D1*
X-626996Y-249869D2*
X-615507D1*
X-1090853Y-274738D2*
X-1080493D1*
X-657568D2*
X-615507D1*
X-1101995Y-299606D2*
X-1080493D1*
X-869501D2*
X-615507D1*
X-1124350Y-324475D2*
X-615507D1*
X-1384510Y-349344D2*
X-1347777D1*
X-1122234D2*
X-1065944D1*
X-1384510Y-374213D2*
X-1350504D1*
X-1119507D2*
X-1090811D1*
X-1384510Y-399081D2*
X-1347688D1*
X-1334507Y-448819D2*
X-1322192D1*
X-1007098Y-473688D2*
X-677783D1*
X-1031966Y-498556D2*
X-702651D1*
X-1056835Y-523425D2*
X-727520D1*
X-1081702Y-548294D2*
X-752387D1*
X-1109530Y-573163D2*
X-777255D1*
X-622008Y-697507D2*
X-589060D1*
X-622008Y-722375D2*
X-599269D1*
X-1509908Y-821850D2*
X-1480602D1*
X-1419390D2*
X-761358D1*
X-1372562Y-846719D2*
X-798031D1*
X-1354799Y-995932D2*
X-806268D1*
X-1378518Y-1020801D2*
X-1283545D1*
X-1186466D2*
X-778995D1*
X-651020D2*
X-637916D1*
X-1125283Y-1045669D2*
X-721886D1*
X-809089Y-1070538D2*
X-749642D1*
X-1387003Y-405699D2*
X-1343475D1*
X-1344667Y-401264D1*
X-1345365Y-398285D1*
X-1345983Y-395287D1*
X-1346518Y-392274D1*
X-1346972Y-389248D1*
X-1347344Y-386210D1*
X-1347634Y-383164D1*
X-1347841Y-380110D1*
X-1347965Y-377052D1*
X-1348007Y-373993D1*
X-1347965Y-370933D1*
X-1347841Y-367875D1*
X-1347634Y-364822D1*
X-1347344Y-361776D1*
X-1346972Y-358738D1*
X-1346517Y-355711D1*
X-1345982Y-352698D1*
X-1345365Y-349701D1*
X-1344665Y-346722D1*
X-1343887Y-343762D1*
X-1343029Y-340825D1*
X-1342091Y-337912D1*
X-1341075Y-335025D1*
X-1340486Y-333488D1*
X-1342530Y-334573D1*
X-1345274Y-335936D1*
X-1348059Y-337213D1*
X-1350882Y-338402D1*
X-1353741Y-339501D1*
X-1356633Y-340512D1*
X-1359555Y-341432D1*
X-1362504Y-342259D1*
X-1365479Y-342993D1*
X-1368474Y-343635D1*
X-1371488Y-344182D1*
X-1374517Y-344636D1*
X-1377559Y-344995D1*
X-1380612Y-345257D1*
X-1383671Y-345425D1*
X-1387167Y-345493D1*
X-1387105Y-346457D1*
X-1387005Y-359367D1*
Y-405702D1*
X-1337005Y-422627D2*
Y-455696D1*
X-1313060Y-455699D1*
X-1314911Y-453896D1*
X-1317045Y-451703D1*
X-1319119Y-449454D1*
X-1321133Y-447148D1*
X-1323081Y-444789D1*
X-1324966Y-442378D1*
X-1326785Y-439917D1*
X-1328537Y-437407D1*
X-1330219Y-434852D1*
X-1331832Y-432251D1*
X-1333374Y-429608D1*
X-1334844Y-426924D1*
X-1336241Y-424201D1*
X-1337004Y-422608D1*
X-1352944Y-989001D2*
X-1354915Y-992364D1*
X-1360209Y-999911D1*
X-1366100Y-1007001D1*
X-1372549Y-1013587D1*
X-1379513Y-1019626D1*
X-1386948Y-1025077D1*
X-1387247Y-1025261D1*
X-1300727Y-1032067D1*
X-1298182Y-1030304D1*
X-1290336Y-1025467D1*
X-1282121Y-1021285D1*
X-1273592Y-1017786D1*
X-1264807Y-1014995D1*
X-1255823Y-1012929D1*
X-1246701Y-1011601D1*
X-1237501Y-1011022D1*
X-1228285Y-1011194D1*
X-1219113Y-1012118D1*
X-1210046Y-1013786D1*
X-1201147Y-1016188D1*
X-1192471Y-1019306D1*
X-1184080Y-1023121D1*
X-1176028Y-1027608D1*
X-1168367Y-1032736D1*
X-1161151Y-1038471D1*
X-1155824Y-1043465D1*
X-751833Y-1075239D1*
X-732047Y-1055453D1*
X-725102Y-1049453D1*
X-717358Y-1044525D1*
X-708982Y-1040776D1*
X-700148Y-1038282D1*
X-691038Y-1037100D1*
X-678301Y-1037000D1*
X-634764D1*
X-635391Y-1029597D1*
X-635392Y-1020411D1*
X-634531Y-1011264D1*
X-633129Y-1003869D1*
X-637560Y-1008281D1*
X-644525Y-1014320D1*
X-651959Y-1019772D1*
X-659812Y-1024598D1*
X-668033Y-1028769D1*
X-676567Y-1032256D1*
X-685356Y-1035035D1*
X-694343Y-1037089D1*
X-703466Y-1038404D1*
X-712667Y-1038971D1*
X-721883Y-1038785D1*
X-731054Y-1037849D1*
X-740118Y-1036169D1*
X-749014Y-1033756D1*
X-757685Y-1030625D1*
X-766071Y-1026798D1*
X-774118Y-1022301D1*
X-781770Y-1017163D1*
X-788980Y-1011417D1*
X-795697Y-1005104D1*
X-801875Y-998262D1*
X-807478Y-990942D1*
X-808728Y-988996D1*
X-1352828Y-988995D1*
X-1514462Y-838592D2*
X-1509164Y-835030D1*
X-1501121Y-830528D1*
X-1492736Y-826696D1*
X-1484068Y-823560D1*
X-1475173Y-821142D1*
X-1466110Y-819455D1*
X-1456941Y-818514D1*
X-1447724Y-818323D1*
X-1438522Y-818885D1*
X-1429398Y-820193D1*
X-1420411Y-822241D1*
X-1411619Y-825016D1*
X-1403084Y-828497D1*
X-1394861Y-832664D1*
X-1387004Y-837486D1*
X-1379567Y-842932D1*
X-1372598Y-848967D1*
X-1366146Y-855549D1*
X-1360249Y-862635D1*
X-1359996Y-862996D1*
X-808824Y-862995D1*
X-807517Y-861104D1*
X-801920Y-853780D1*
X-795744Y-846936D1*
X-789031Y-840618D1*
X-781827Y-834867D1*
X-774176Y-829724D1*
X-766133Y-825222D1*
X-757748Y-821390D1*
X-749080Y-818255D1*
X-740185Y-815836D1*
X-731122Y-814150D1*
X-721953Y-813209D1*
X-713555Y-813034D1*
X-726097Y-800499D1*
X-1509769Y-800500D1*
X-1514449Y-838480D1*
X-872000Y-275491D2*
Y-315500D1*
X-1078000D1*
Y-235056D1*
X-1090328Y-234726D1*
X-1089930Y-238322D1*
X-1089692Y-241375D1*
X-1089549Y-244436D1*
X-1089500Y-247500D1*
X-1089547Y-250562D1*
X-1089692Y-253622D1*
X-1089930Y-256676D1*
X-1090265Y-259720D1*
X-1090694Y-262753D1*
X-1091218Y-265772D1*
X-1091836Y-268772D1*
X-1092549Y-271752D1*
X-1093353Y-274707D1*
X-1094249Y-277636D1*
X-1095236Y-280537D1*
X-1096314Y-283404D1*
X-1097480Y-286236D1*
X-1098735Y-289031D1*
X-1100076Y-291785D1*
X-1101504Y-294496D1*
X-1103014Y-297160D1*
X-1104608Y-299777D1*
X-1106282Y-302343D1*
X-1108035Y-304854D1*
X-1109867Y-307310D1*
X-1111774Y-309706D1*
X-1113756Y-312043D1*
X-1115808Y-314316D1*
X-1117932Y-316524D1*
X-1120123Y-318665D1*
X-1122381Y-320736D1*
X-1124702Y-322735D1*
X-1127084Y-324661D1*
X-1129525Y-326512D1*
X-1131752Y-328093D1*
X-1131202Y-329344D1*
X-1130031Y-332171D1*
X-1128937Y-335029D1*
X-1127921Y-337916D1*
X-1126983Y-340828D1*
X-1126125Y-343766D1*
X-1125346Y-346726D1*
X-1124648Y-349705D1*
X-1124030Y-352702D1*
X-1123495Y-355715D1*
X-1123041Y-358741D1*
X-1122669Y-361780D1*
X-1122379Y-364825D1*
X-1122172Y-367879D1*
X-1122049Y-370937D1*
X-1122007Y-373995D1*
X-1122049Y-377056D1*
X-1122172Y-380114D1*
X-1122379Y-383168D1*
X-1122669Y-386214D1*
X-1123041Y-389252D1*
X-1123496Y-392278D1*
X-1124031Y-395291D1*
X-1124648Y-398289D1*
X-1125348Y-401268D1*
X-1126126Y-404227D1*
X-1126984Y-407164D1*
X-1127923Y-410077D1*
X-1128938Y-412965D1*
X-1130114Y-416018D1*
X-1057047Y-342953D1*
X-1050102Y-336953D1*
X-1042358Y-332025D1*
X-1033982Y-328276D1*
X-1025148Y-325782D1*
X-1016038Y-324600D1*
X-1003249Y-324500D1*
X-613000D1*
Y-247621D1*
X-627303Y-247240D1*
X-631112Y-251696D1*
X-637560Y-258281D1*
X-644525Y-264320D1*
X-651959Y-269772D1*
X-659812Y-274598D1*
X-668033Y-278769D1*
X-676567Y-282256D1*
X-685356Y-285035D1*
X-694343Y-287089D1*
X-703466Y-288404D1*
X-712667Y-288971D1*
X-721883Y-288785D1*
X-731054Y-287849D1*
X-740118Y-286169D1*
X-749014Y-283756D1*
X-757685Y-280625D1*
X-766071Y-276798D1*
X-768390Y-275503D1*
X-872003Y-275500D1*
X-1289547Y-250562D2*
X-1289692Y-253622D1*
X-1289930Y-256676D1*
X-1290265Y-259720D1*
X-1290694Y-262753D1*
X-1291218Y-265772D1*
X-1291836Y-268772D1*
X-1292549Y-271752D1*
X-1293353Y-274707D1*
X-1294306Y-277803D1*
X-1290619Y-275627D1*
X-1287936Y-274157D1*
X-1285213Y-272760D1*
X-1282525Y-271472D1*
X-1283484Y-267277D1*
X-1284055Y-264268D1*
X-1284531Y-261241D1*
X-1284913Y-258202D1*
X-1285201Y-255152D1*
X-1285392Y-252094D1*
X-1285488Y-249033D1*
Y-245970D1*
X-1285392Y-242908D1*
X-1285201Y-239850D1*
X-1284915Y-236801D1*
X-1284533Y-233761D1*
X-1284055Y-230735D1*
X-1283820Y-229497D1*
X-1291206Y-229297D1*
X-1290694Y-232244D1*
X-1290265Y-235277D1*
X-1289930Y-238322D1*
X-1289692Y-241375D1*
X-1289549Y-244436D1*
X-1289500Y-247500D1*
X-1289547Y-250562D1*
X-474730Y-894631D2*
X-476177Y-885559D1*
X-476625Y-883777D1*
X-477123Y-882009D1*
X-477675Y-880256D1*
X-478276Y-878520D1*
X-478927Y-876802D1*
X-479629Y-875104D1*
X-480379Y-873428D1*
X-481178Y-871773D1*
X-482025Y-870143D1*
X-482735Y-868860D1*
X-469517Y-882080D1*
X-462789Y-961745D1*
X-465812Y-958180D1*
X-472385Y-951761D1*
X-474499Y-950051D1*
X-474500Y-900028D1*
X-474730Y-894631D1*
X-584675Y-699908D2*
X-588165Y-695119D1*
X-592723Y-687148D1*
X-596373Y-678723D1*
X-599068Y-669946D1*
X-600148Y-664247D1*
X-624504Y-688600D1*
X-624500Y-723898D1*
X-601442Y-746963D1*
X-601167Y-742594D1*
X-599843Y-733508D1*
X-597522Y-724625D1*
X-594236Y-716051D1*
X-590024Y-707894D1*
X-584934Y-700251D1*
X-584732Y-700010D1*
X-1099131Y-563227D2*
X-986407Y-450500D1*
X-652097Y-450501D1*
X-776096Y-574500D1*
X-1114448D1*
X-1112564Y-573469D1*
X-1104930Y-568357D1*
X-1099131Y-563227D1*
X-1387500Y-247500D2*
G54D13*
X-1289535D1*
X-1387500Y-345465D2*
Y-247500D1*
X-1285465D2*
X-1089535D1*
X-1122042Y-373995D2*
X-1347971D1*
X-620608Y712631D2*
G54D14*
X-272041D1*
X-617055Y687762D2*
X-585507D1*
X-299731D2*
X-268308D1*
X-613503Y662894D2*
X-585507D1*
X-278451D2*
X-264576D1*
X-609950Y638025D2*
X-585507D1*
X-606396Y613156D2*
X-585507D1*
X-602844Y588287D2*
X-585507D1*
X-267542D2*
X-253381D1*
X-579938Y710499D2*
X-387000D1*
Y708001D1*
X-385529Y708328D1*
X-376466Y709829D1*
X-367302Y710475D1*
X-358117Y710260D1*
X-348993Y709185D1*
X-340009Y707262D1*
X-331245Y704505D1*
X-322780Y700941D1*
X-314682Y696598D1*
X-307029Y691517D1*
X-299885Y685741D1*
X-293312Y679322D1*
X-287370Y672315D1*
X-282110Y664783D1*
X-277579Y656791D1*
X-273816Y648411D1*
X-270854Y639714D1*
X-268719Y630778D1*
X-267430Y621682D1*
X-267000Y612501D1*
X-267430Y603329D1*
X-268718Y594232D1*
X-270852Y585297D1*
X-273812Y576600D1*
X-277576Y568219D1*
X-282106Y560227D1*
X-287366Y552694D1*
X-293307Y545688D1*
X-299879Y539268D1*
X-302007Y537547D1*
X-302000Y528343D1*
X-299638Y534119D1*
X-295154Y542127D1*
X-289549Y549406D1*
X-280636Y558459D1*
X-250879Y588217D1*
X-261867Y661514D1*
X-273154Y736756D1*
X-545577Y718600D1*
X-623211Y713425D1*
X-613483Y645265D1*
X-602954Y571563D1*
X-583005Y571568D1*
X-583000Y658417D1*
Y710499D1*
X-579938D1*
X-485003Y710462D2*
G54D13*
X-485000Y612499D1*
X-582965Y612495D2*
X-485000Y612499D1*
G54D15*
X-687500Y403643D3*
X-487500D3*
X-1600000Y-887500D3*
Y-1087500D3*
G54D16*
X-550000Y-125000D3*
G54D15*
X-350000D3*
G54D16*
X-353801Y237503D3*
G54D15*
X-671199Y237497D3*
G54D16*
X-728801Y75000D3*
G54D15*
X-1046199D3*
G54D17*
X-1450005Y-518699D3*
G54D18*
X-1449995Y-931301D3*
G54D16*
X-485000Y612498D3*
G54D15*
X-365000Y612502D3*
G54D19*
X-150000Y-724998D3*
X-250000Y-725002D3*
X-975000Y-112500D3*
Y-212500D3*
G54D15*
X-1387500Y-247500D3*
Y72500D3*
X-1187500Y-247500D3*
Y72500D3*
X-1785000Y237494D3*
X-1365000Y237506D3*
X-1710000Y412470D3*
X-1290000Y412530D3*
X-1172500Y628635D3*
X-852500Y628649D3*
X-1785000Y562481D3*
X-1365000Y562519D3*
X-1862496Y-1172500D3*
X-1862504Y-752500D3*
X-1724996Y-1172500D3*
X-1725004Y-752500D3*
X-112500Y-397500D3*
Y22500D3*
X-640000Y-1175000D3*
X-1060000D3*
X-100004Y340000D3*
X-99996Y660000D3*
G54D16*
X-137499Y-1125000D3*
G54D15*
X-537499Y-1025000D3*
X-137499Y-925000D3*
G54D18*
X-1235007Y-373995D3*
X-715007Y-925995D3*
Y-175995D3*
X-1235007Y-1123995D3*
G54D20*
X-862497Y208568D3*
G54D21*
X-862499Y308568D3*
X-862501Y408568D3*
X-862503Y508568D3*
X-1162503Y508563D3*
X-1162501Y408563D3*
X-1162499Y308563D3*
X-1162497Y208563D3*
G54D22*
X-503503Y-550001D3*
G54D23*
X-503500Y-650001D3*
X-503497Y-750001D3*
G54D24*
X-1837500Y-375000D3*
G54D25*
X-1737500D3*
X-1637500D3*
Y-75000D3*
X-1737500D3*
X-1837500D3*
M02*
