G04 DipTrace 5.0.0.1*
G04 KocTopSilk.gbr*
%MOIN*%
G04 #@! TF.FileFunction,Legend,Top*
G04 #@! TF.Part,Single*
%ADD10C,0.004724*%
%ADD56C,0.00772*%
%FSLAX26Y26*%
G04*
G70*
G90*
G75*
G01*
G04 TopSilk*
%LPD*%
X-635925Y444982D2*
G54D10*
X-660335D1*
Y362304D1*
X-635925D1*
X-539075Y444982D2*
X-514665D1*
Y362304D1*
X-539075D1*
X-702461Y403643D2*
X-660335D1*
X-514665D2*
X-472539D1*
X-1558661Y-939075D2*
Y-914665D1*
X-1641339D1*
Y-939075D1*
X-1558661Y-1035925D2*
Y-1060335D1*
X-1641339D1*
Y-1035925D1*
X-1600000Y-872539D2*
Y-914665D1*
Y-1060335D2*
Y-1102461D1*
X-650000Y-125000D2*
G02X-650000Y-125000I200000J0D01*
G01*
G36*
X-619843Y35000D2*
X-619758Y36285D1*
X-619507Y37547D1*
X-619093Y38767D1*
X-618524Y39921D1*
X-617809Y40992D1*
X-616960Y41960D1*
X-615992Y42809D1*
X-614921Y43524D1*
X-613767Y44093D1*
X-612547Y44507D1*
X-611285Y44758D1*
X-610000Y44843D1*
X-608715Y44758D1*
X-607453Y44507D1*
X-606233Y44093D1*
X-605079Y43524D1*
X-604008Y42809D1*
X-603040Y41960D1*
X-602191Y40992D1*
X-601476Y39921D1*
X-600907Y38767D1*
X-600493Y37547D1*
X-600242Y36285D1*
X-600157Y35000D1*
D1*
X-600242Y33715D1*
X-600493Y32453D1*
X-600907Y31233D1*
X-601476Y30079D1*
X-602191Y29008D1*
X-603040Y28040D1*
X-604008Y27191D1*
X-605079Y26476D1*
X-606233Y25907D1*
X-607453Y25493D1*
X-608715Y25242D1*
X-610000Y25157D1*
X-611285Y25242D1*
X-612547Y25493D1*
X-613767Y25907D1*
X-614921Y26476D1*
X-615992Y27191D1*
X-616960Y28040D1*
X-617809Y29008D1*
X-618524Y30079D1*
X-619093Y31233D1*
X-619507Y32453D1*
X-619758Y33715D1*
X-619843Y35000D1*
D1*
G37*
X-452657Y199903D2*
G54D10*
X-422735Y199904D1*
X-422737Y275100D1*
X-452658D1*
X-572342Y199900D2*
X-602263D1*
X-602265Y275096D1*
X-572343Y275097D1*
X-382972Y237503D2*
X-422736Y237502D1*
X-602264Y237498D2*
X-642028Y237497D1*
G36*
X-343995Y200496D2*
X-344079Y199211D1*
X-344331Y197948D1*
X-344744Y196729D1*
X-345314Y195575D1*
X-346029Y194504D1*
X-346878Y193536D1*
X-347846Y192687D1*
X-348916Y191972D1*
X-350071Y191402D1*
X-351290Y190989D1*
X-352553Y190737D1*
X-353838Y190653D1*
X-355122Y190737D1*
X-356385Y190988D1*
X-357604Y191402D1*
X-358759Y191972D1*
X-359829Y192687D1*
X-360797Y193536D1*
X-361646Y194504D1*
X-362362Y195574D1*
X-362931Y196729D1*
X-363345Y197948D1*
X-363596Y199211D1*
X-363680Y200495D1*
D1*
X-363596Y201780D1*
X-363345Y203043D1*
X-362931Y204262D1*
X-362362Y205417D1*
X-361646Y206487D1*
X-360798Y207455D1*
X-359830Y208304D1*
X-358759Y209019D1*
X-357605Y209589D1*
X-356385Y210003D1*
X-355123Y210254D1*
X-353838Y210338D1*
X-352553Y210254D1*
X-351291Y210003D1*
X-350071Y209589D1*
X-348917Y209020D1*
X-347846Y208304D1*
X-346878Y207455D1*
X-346029Y206488D1*
X-345314Y205417D1*
X-344745Y204262D1*
X-344331Y203043D1*
X-344079Y201781D1*
X-343995Y200496D1*
D1*
G37*
X-562499Y187499D2*
G54D10*
X-562501Y287499D1*
X-462500Y237501D1*
X-562499Y187499D1*
X-462499Y187501D2*
X-462501Y287501D1*
X-827657Y37402D2*
X-797736D1*
Y112598D1*
X-827657D1*
X-947343Y37402D2*
X-977264D1*
Y112598D1*
X-947343D1*
X-757972Y75000D2*
X-797736D1*
X-977264D2*
X-1017028D1*
G36*
X-718996Y37992D2*
X-719080Y36707D1*
X-719331Y35445D1*
X-719745Y34226D1*
X-720315Y33071D1*
X-721030Y32000D1*
X-721879Y31032D1*
X-722847Y30184D1*
X-723917Y29468D1*
X-725072Y28899D1*
X-726291Y28485D1*
X-727554Y28234D1*
X-728839Y28150D1*
X-730123Y28234D1*
X-731386Y28485D1*
X-732605Y28899D1*
X-733760Y29468D1*
X-734830Y30184D1*
X-735798Y31032D1*
X-736647Y32000D1*
X-737362Y33071D1*
X-737932Y34226D1*
X-738346Y35445D1*
X-738597Y36707D1*
X-738681Y37992D1*
D1*
X-738597Y39277D1*
X-738346Y40540D1*
X-737932Y41759D1*
X-737362Y42913D1*
X-736647Y43984D1*
X-735798Y44952D1*
X-734830Y45801D1*
X-733760Y46516D1*
X-732605Y47085D1*
X-731386Y47499D1*
X-730123Y47750D1*
X-728839Y47835D1*
X-727554Y47750D1*
X-726291Y47499D1*
X-725072Y47085D1*
X-723917Y46516D1*
X-722847Y45801D1*
X-721879Y44952D1*
X-721030Y43984D1*
X-720315Y42913D1*
X-719745Y41759D1*
X-719331Y40540D1*
X-719080Y39277D1*
X-718996Y37992D1*
D1*
G37*
X-937500Y25000D2*
G54D10*
Y125000D1*
X-837500Y75000D1*
X-937500Y25000D1*
X-837500Y75000D2*
Y125000D1*
Y75000D2*
Y25000D1*
X-1396852Y-656888D2*
X-1396853Y-622636D1*
X-1503152Y-622639D1*
X-1503151Y-656891D1*
X-1396849Y-793109D2*
X-1396848Y-827361D1*
X-1503147Y-827364D1*
X-1503148Y-793112D1*
X-1450004Y-556890D2*
X-1450003Y-622638D1*
X-1449997Y-827362D2*
X-1449996Y-893110D1*
G36*
X-1403943Y-508857D2*
X-1402658Y-508941D1*
X-1401395Y-509192D1*
X-1400176Y-509606D1*
X-1399021Y-510176D1*
X-1397951Y-510891D1*
X-1396983Y-511740D1*
X-1396134Y-512708D1*
X-1395419Y-513778D1*
X-1394849Y-514933D1*
X-1394435Y-516152D1*
X-1394184Y-517415D1*
X-1394100Y-518699D1*
X-1394184Y-519984D1*
X-1394435Y-521247D1*
X-1394849Y-522466D1*
X-1395418Y-523621D1*
X-1396134Y-524691D1*
X-1396982Y-525659D1*
X-1397950Y-526508D1*
X-1399021Y-527223D1*
X-1400176Y-527793D1*
X-1401395Y-528207D1*
X-1402657Y-528458D1*
X-1403942Y-528542D1*
D1*
X-1405227Y-528458D1*
X-1406489Y-528207D1*
X-1407709Y-527793D1*
X-1408863Y-527224D1*
X-1409934Y-526508D1*
X-1410902Y-525659D1*
X-1411751Y-524692D1*
X-1412466Y-523621D1*
X-1413036Y-522466D1*
X-1413449Y-521247D1*
X-1413701Y-519985D1*
X-1413785Y-518700D1*
X-1413701Y-517415D1*
X-1413450Y-516152D1*
X-1413036Y-514933D1*
X-1412466Y-513779D1*
X-1411751Y-512708D1*
X-1410902Y-511740D1*
X-1409934Y-510891D1*
X-1408864Y-510176D1*
X-1407709Y-509606D1*
X-1406490Y-509193D1*
X-1405227Y-508941D1*
X-1403943Y-508857D1*
D1*
G37*
X-1400001Y-674999D2*
G54D10*
X-1500001Y-675001D1*
X-1450001Y-675000D2*
X-1399999Y-774999D1*
X-1499999Y-775001D2*
X-1399999Y-774999D1*
X-1499999Y-775001D2*
X-1450001Y-675000D1*
X-274999Y562504D2*
X-275001Y662504D1*
X-574999Y562496D2*
X-274999Y562504D1*
X-574999Y562496D2*
X-575001Y662496D1*
X-275001Y662504D1*
X-300002Y-675004D2*
X-299998Y-775004D1*
X-100002Y-674996D2*
X-300002Y-675004D1*
X-100002Y-674996D2*
X-99998Y-774996D1*
X-299998Y-775004D1*
X-1025000Y-262500D2*
X-925000D1*
X-1025000Y-62500D2*
Y-262500D1*
Y-62500D2*
X-925000D1*
Y-262500D1*
X-1428839Y-135925D2*
Y-160335D1*
X-1346161D1*
Y-135925D1*
X-1428839Y-39075D2*
Y-14665D1*
X-1346161D1*
Y-39075D1*
X-1387500Y-202461D2*
Y-160335D1*
Y-14665D2*
Y27461D1*
X-1228839Y-135925D2*
Y-160335D1*
X-1146161D1*
Y-135925D1*
X-1228839Y-39075D2*
Y-14665D1*
X-1146161D1*
Y-39075D1*
X-1187500Y-202461D2*
Y-160335D1*
Y-14665D2*
Y27461D1*
X-1623426Y278837D2*
X-1647836Y278836D1*
X-1647833Y196159D1*
X-1623424Y196160D1*
X-1526576Y278840D2*
X-1502167Y278841D1*
X-1502164Y196164D1*
X-1526574Y196163D1*
X-1760000Y237495D2*
X-1647835Y237498D1*
X-1502165Y237502D2*
X-1390000Y237505D1*
X-1548431Y453832D2*
X-1572841Y453828D1*
X-1572829Y371151D1*
X-1548419Y371154D1*
X-1451581Y453846D2*
X-1427171Y453849D1*
X-1427159Y371172D1*
X-1451569Y371168D1*
X-1685000Y412473D2*
X-1572835Y412490D1*
X-1427165Y412510D2*
X-1315000Y412527D1*
X-1060927Y669978D2*
X-1085336Y669977D1*
X-1085333Y587300D1*
X-1060923Y587301D1*
X-964077Y669982D2*
X-939667Y669984D1*
X-939664Y587306D1*
X-964073Y587305D1*
X-1127461Y628637D2*
X-1085335Y628639D1*
X-939665Y628645D2*
X-897539Y628647D1*
X-1623429Y603834D2*
X-1647838Y603832D1*
X-1647831Y521155D1*
X-1623422Y521157D1*
X-1526578Y603843D2*
X-1502169Y603845D1*
X-1502162Y521168D1*
X-1526571Y521166D1*
X-1760000Y562484D2*
X-1647835Y562494D1*
X-1502165Y562506D2*
X-1390000Y562516D1*
X-1903838Y-1010926D2*
X-1903837Y-1035335D1*
X-1821160Y-1035334D1*
X-1821161Y-1010924D1*
X-1903839Y-914076D2*
X-1903840Y-889666D1*
X-1821163Y-889665D1*
X-1821162Y-914074D1*
X-1862497Y-1147500D2*
X-1862499Y-1035335D1*
X-1862501Y-889665D2*
X-1862503Y-777500D1*
X-1766338Y-1010926D2*
X-1766337Y-1035335D1*
X-1683660Y-1035334D1*
X-1683661Y-1010924D1*
X-1766339Y-914076D2*
X-1766340Y-889666D1*
X-1683663Y-889665D1*
X-1683662Y-914074D1*
X-1724997Y-1147500D2*
X-1724999Y-1035335D1*
X-1725001Y-889665D2*
X-1725003Y-777500D1*
X-153839Y-235925D2*
Y-260335D1*
X-71161D1*
Y-235925D1*
X-153839Y-139075D2*
Y-114665D1*
X-71161D1*
Y-139075D1*
X-112500Y-372500D2*
Y-260335D1*
Y-114665D2*
Y-2500D1*
X-801575Y-1216339D2*
X-777165D1*
Y-1133661D1*
X-801575D1*
X-898425Y-1216339D2*
X-922835D1*
Y-1133661D1*
X-898425D1*
X-665000Y-1175000D2*
X-777165D1*
X-922835D2*
X-1035000D1*
X-141340Y451576D2*
Y427166D1*
X-58663Y427164D1*
Y451574D1*
X-141337Y548426D2*
Y572836D1*
X-58660Y572834D1*
Y548424D1*
X-100003Y385039D2*
X-100002Y427165D1*
X-99998Y572835D2*
X-99997Y614961D1*
X-337498Y-1225000D2*
X-137499D1*
X-406789Y-1031269D2*
X-312301Y-1031260D1*
X-406789Y-1005739D2*
X-312301Y-1005748D1*
X-337498Y-1225000D2*
G02X-337498Y-825000I-1J200000D01*
G01*
G36*
X-54428Y-1134843D2*
X-55713Y-1134758D1*
X-56976Y-1134507D1*
X-58195Y-1134093D1*
X-59350Y-1133524D1*
X-60420Y-1132809D1*
X-61388Y-1131960D1*
X-62237Y-1130992D1*
X-62952Y-1129921D1*
X-63522Y-1128767D1*
X-63936Y-1127547D1*
X-64187Y-1126285D1*
X-64271Y-1125000D1*
X-64187Y-1123715D1*
X-63936Y-1122453D1*
X-63522Y-1121233D1*
X-62952Y-1120079D1*
X-62237Y-1119008D1*
X-61388Y-1118040D1*
X-60420Y-1117191D1*
X-59350Y-1116476D1*
X-58195Y-1115907D1*
X-56976Y-1115493D1*
X-55713Y-1115242D1*
X-54428Y-1115157D1*
D1*
X-53144Y-1115242D1*
X-51881Y-1115493D1*
X-50662Y-1115907D1*
X-49507Y-1116476D1*
X-48437Y-1117191D1*
X-47469Y-1118040D1*
X-46620Y-1119008D1*
X-45905Y-1120079D1*
X-45335Y-1121233D1*
X-44921Y-1122453D1*
X-44670Y-1123715D1*
X-44586Y-1125000D1*
X-44670Y-1126285D1*
X-44921Y-1127547D1*
X-45335Y-1128767D1*
X-45905Y-1129921D1*
X-46620Y-1130992D1*
X-47469Y-1131960D1*
X-48437Y-1132809D1*
X-49507Y-1133524D1*
X-50662Y-1134093D1*
X-51881Y-1134507D1*
X-53144Y-1134758D1*
X-54428Y-1134843D1*
D1*
G37*
X-137499Y-1225000D2*
G54D10*
Y-1175000D1*
Y-825000D1*
X-337498D2*
X-137499D1*
X-660007Y-285995D2*
X-1290007D1*
Y-1013995D1*
X-660007D1*
Y-285995D1*
X-675007Y-299995D2*
X-975007D1*
Y-349995D2*
Y-299995D1*
Y-349995D2*
X-725007D1*
Y-599995D1*
X-1225007D2*
Y-699995D1*
X-725007D2*
Y-949995D1*
X-975007D1*
Y-999995D1*
X-675007D1*
Y-299995D1*
X-975007D2*
X-1275007D1*
Y-999995D1*
X-975007D1*
Y-949995D2*
X-1225007D1*
Y-699995D2*
Y-949995D1*
X-975007Y-349995D2*
X-1225007D1*
Y-599995D1*
X-725007Y-399995D2*
X-775007D1*
Y-549995D1*
X-1175007D1*
Y-399995D1*
Y-749995D2*
X-775007D1*
Y-899995D1*
X-725007D1*
X-1175007Y-749995D2*
Y-899995D1*
X-1225007D1*
X-725007Y-599995D2*
Y-699995D1*
X-1167418Y177460D2*
Y163287D1*
X-857575Y163293D1*
Y177466D1*
X-1167425Y539665D2*
Y553838D1*
X-857582Y553844D1*
Y539671D1*
G36*
X-823914Y198727D2*
X-825199Y198811D1*
X-826462Y199062D1*
X-827681Y199476D1*
X-828836Y200045D1*
X-829906Y200760D1*
X-830874Y201609D1*
X-831723Y202577D1*
X-832438Y203648D1*
X-833008Y204802D1*
X-833422Y206021D1*
X-833673Y207284D1*
X-833757Y208569D1*
X-833673Y209854D1*
X-833422Y211116D1*
X-833008Y212335D1*
X-832439Y213490D1*
X-831723Y214561D1*
X-830874Y215529D1*
X-829906Y216378D1*
X-828836Y217093D1*
X-827681Y217662D1*
X-826462Y218076D1*
X-825199Y218327D1*
X-823915Y218412D1*
D1*
X-822630Y218327D1*
X-821367Y218076D1*
X-820148Y217662D1*
X-818993Y217093D1*
X-817923Y216378D1*
X-816955Y215529D1*
X-816106Y214561D1*
X-815391Y213490D1*
X-814821Y212336D1*
X-814407Y211117D1*
X-814156Y209854D1*
X-814072Y208569D1*
X-814156Y207285D1*
X-814407Y206022D1*
X-814821Y204803D1*
X-815391Y203648D1*
X-816106Y202577D1*
X-816955Y201609D1*
X-817923Y200761D1*
X-818993Y200045D1*
X-820148Y199476D1*
X-821367Y199062D1*
X-822630Y198811D1*
X-823914Y198727D1*
D1*
G37*
X-546909Y-567161D2*
G54D10*
G02X-546905Y-732843I53152J-82840D01*
G01*
X-546909Y-567161D2*
X-546905Y-732843D1*
G36*
X-563837Y-590947D2*
X-562553Y-591031D1*
X-561290Y-591282D1*
X-560071Y-591696D1*
X-558916Y-592266D1*
X-557846Y-592981D1*
X-556878Y-593830D1*
X-556029Y-594798D1*
X-555313Y-595868D1*
X-554744Y-597023D1*
X-554330Y-598242D1*
X-554079Y-599505D1*
X-553995Y-600789D1*
X-554079Y-602074D1*
X-554330Y-603337D1*
X-554744Y-604556D1*
X-555313Y-605711D1*
X-556028Y-606781D1*
X-556877Y-607749D1*
X-557845Y-608598D1*
X-558916Y-609313D1*
X-560070Y-609883D1*
X-561290Y-610297D1*
X-562552Y-610548D1*
X-563837Y-610632D1*
D1*
X-565122Y-610548D1*
X-566384Y-610297D1*
X-567604Y-609883D1*
X-568758Y-609314D1*
X-569829Y-608598D1*
X-570797Y-607749D1*
X-571646Y-606782D1*
X-572361Y-605711D1*
X-572930Y-604556D1*
X-573344Y-603337D1*
X-573596Y-602075D1*
X-573680Y-600790D1*
X-573596Y-599505D1*
X-573344Y-598242D1*
X-572931Y-597023D1*
X-572361Y-595869D1*
X-571646Y-594798D1*
X-570797Y-593830D1*
X-569829Y-592981D1*
X-568759Y-592266D1*
X-567604Y-591696D1*
X-566385Y-591282D1*
X-565122Y-591031D1*
X-563837Y-590947D1*
D1*
G37*
X-1918602Y-70079D2*
G54D10*
X-1932776D1*
Y-379921D1*
X-1918602D1*
X-1556398Y-70079D2*
X-1542224D1*
Y-379921D1*
X-1556398D1*
G36*
X-1847343Y-413583D2*
X-1847258Y-412298D1*
X-1847007Y-411035D1*
X-1846593Y-409816D1*
X-1846024Y-408661D1*
X-1845309Y-407591D1*
X-1844460Y-406623D1*
X-1843492Y-405774D1*
X-1842421Y-405059D1*
X-1841267Y-404489D1*
X-1840047Y-404076D1*
X-1838785Y-403824D1*
X-1837500Y-403740D1*
X-1836215Y-403824D1*
X-1834953Y-404076D1*
X-1833733Y-404489D1*
X-1832579Y-405059D1*
X-1831508Y-405774D1*
X-1830540Y-406623D1*
X-1829691Y-407591D1*
X-1828976Y-408661D1*
X-1828407Y-409816D1*
X-1827993Y-411035D1*
X-1827742Y-412298D1*
X-1827657Y-413583D1*
D1*
X-1827742Y-414867D1*
X-1827993Y-416130D1*
X-1828407Y-417349D1*
X-1828976Y-418504D1*
X-1829691Y-419574D1*
X-1830540Y-420542D1*
X-1831508Y-421391D1*
X-1832579Y-422107D1*
X-1833733Y-422676D1*
X-1834953Y-423090D1*
X-1836215Y-423341D1*
X-1837500Y-423425D1*
X-1838785Y-423341D1*
X-1840047Y-423090D1*
X-1841267Y-422676D1*
X-1842421Y-422107D1*
X-1843492Y-421391D1*
X-1844460Y-420542D1*
X-1845309Y-419574D1*
X-1846024Y-418504D1*
X-1846593Y-417349D1*
X-1847007Y-416130D1*
X-1847258Y-414867D1*
X-1847343Y-413583D1*
D1*
G37*
X-583281Y419837D2*
G54D56*
X-585658Y424590D1*
X-590466Y429399D1*
X-595220Y431775D1*
X-604781D1*
X-609590Y429399D1*
X-614343Y424590D1*
X-616775Y419837D1*
X-619151Y412652D1*
Y400658D1*
X-616775Y393529D1*
X-614343Y388720D1*
X-609590Y383967D1*
X-604781Y381535D1*
X-595220D1*
X-590466Y383967D1*
X-585658Y388720D1*
X-583281Y393529D1*
X-567842Y422158D2*
X-563034Y424590D1*
X-555849Y431720D1*
Y381535D1*
X-1487534Y-980969D2*
X-1482781Y-978592D1*
X-1477972Y-973784D1*
X-1475596Y-969030D1*
Y-959469D1*
X-1477972Y-954660D1*
X-1482781Y-949907D1*
X-1487534Y-947475D1*
X-1494719Y-945099D1*
X-1506713D1*
X-1513842Y-947475D1*
X-1518651Y-949907D1*
X-1523404Y-954660D1*
X-1525836Y-959469D1*
Y-969030D1*
X-1523404Y-973784D1*
X-1518651Y-978592D1*
X-1513842Y-980969D1*
X-1487589Y-998840D2*
X-1485213D1*
X-1480404Y-1001216D1*
X-1478028Y-1003593D1*
X-1475651Y-1008401D1*
Y-1017963D1*
X-1478028Y-1022716D1*
X-1480404Y-1025093D1*
X-1485213Y-1027525D1*
X-1489966D1*
X-1494774Y-1025093D1*
X-1501904Y-1020340D1*
X-1525836Y-996408D1*
Y-1029901D1*
X-456531Y-173715D2*
X-458908Y-168962D1*
X-463716Y-164154D1*
X-468470Y-161777D1*
X-478031D1*
X-482840Y-164154D1*
X-487593Y-168962D1*
X-490025Y-173715D1*
X-492401Y-180900D1*
Y-192894D1*
X-490025Y-200023D1*
X-487593Y-204832D1*
X-482840Y-209585D1*
X-478031Y-212017D1*
X-468470D1*
X-463716Y-209585D1*
X-458908Y-204832D1*
X-456531Y-200023D1*
X-436284Y-161832D2*
X-410031D1*
X-424345Y-180955D1*
X-417160D1*
X-412407Y-183332D1*
X-410031Y-185709D1*
X-407599Y-192894D1*
Y-197647D1*
X-410031Y-204832D1*
X-414784Y-209640D1*
X-421969Y-212017D1*
X-429154D1*
X-436284Y-209640D1*
X-438660Y-207208D1*
X-441092Y-202455D1*
X-419536Y114278D2*
X-419537Y164518D1*
X-436284Y164517D1*
X-443469Y162085D1*
X-448277Y157332D1*
X-450654Y152523D1*
X-453030Y145394D1*
Y133400D1*
X-450653Y126215D1*
X-448277Y121462D1*
X-443468Y116654D1*
X-436283Y114277D1*
X-419536Y114278D1*
X-468469Y123893D2*
X-473278Y121461D1*
X-480462Y114332D1*
X-480464Y164516D1*
X-921287Y-48223D2*
Y2017D1*
X-938034D1*
X-945219Y-415D1*
X-950027Y-5168D1*
X-952404Y-9977D1*
X-954780Y-17106D1*
Y-29100D1*
X-952404Y-36285D1*
X-950027Y-41038D1*
X-945219Y-45846D1*
X-938034Y-48223D1*
X-921287D1*
X-972651Y-36230D2*
Y-38606D1*
X-975028Y-43415D1*
X-977405Y-45791D1*
X-982213Y-48168D1*
X-991775D1*
X-996528Y-45791D1*
X-998905Y-43415D1*
X-1001336Y-38606D1*
Y-33853D1*
X-998905Y-29045D1*
X-994151Y-21915D1*
X-970220Y2017D1*
X-1003713D1*
X-1313786Y-683784D2*
X-1364026Y-683785D1*
X-1364025Y-700531D1*
X-1361593Y-707716D1*
X-1356840Y-712525D1*
X-1352032Y-714901D1*
X-1344902Y-717278D1*
X-1332908Y-717277D1*
X-1325723Y-714901D1*
X-1320970Y-712524D1*
X-1316162Y-707715D1*
X-1313785Y-700530D1*
X-1313786Y-683784D1*
X-1313840Y-737525D2*
X-1313839Y-763778D1*
X-1332963Y-749463D1*
Y-756648D1*
X-1335339Y-761402D1*
X-1337716Y-763778D1*
X-1344900Y-766210D1*
X-1349654D1*
X-1356839Y-763779D1*
X-1361647Y-759026D1*
X-1364024Y-751841D1*
Y-744656D1*
X-1361648Y-737526D1*
X-1359216Y-735149D1*
X-1354463Y-732717D1*
X-456532Y548223D2*
X-456531Y509977D1*
X-458907Y502791D1*
X-461339Y500415D1*
X-466092Y497983D1*
X-470900D1*
X-475654Y500414D1*
X-478030Y502791D1*
X-480462Y509976D1*
X-480463Y514729D1*
X-441092Y538607D2*
X-436284Y541039D1*
X-429099Y548169D1*
X-429098Y497984D1*
X-224998Y-604459D2*
X-224997Y-642706D1*
X-227373Y-649891D1*
X-229805Y-652267D1*
X-234558Y-654700D1*
X-239366D1*
X-244119Y-652268D1*
X-246496Y-649891D1*
X-248928Y-642707D1*
Y-637953D1*
X-207126Y-616452D2*
X-207127Y-614075D1*
X-204750Y-609267D1*
X-202374Y-606890D1*
X-197565Y-604513D1*
X-188004D1*
X-183250Y-606889D1*
X-180874Y-609266D1*
X-178442Y-614074D1*
X-178441Y-618828D1*
X-180873Y-623636D1*
X-185626Y-630766D1*
X-209557Y-654699D1*
X-176064Y-654697D1*
X-851777Y-125000D2*
X-890023D1*
X-897208Y-122623D1*
X-899585Y-120191D1*
X-902017Y-115438D1*
Y-110629D1*
X-899585Y-105876D1*
X-897208Y-103500D1*
X-890023Y-101068D1*
X-885270D1*
X-851832Y-145247D2*
Y-171500D1*
X-870955Y-157185D1*
Y-164371D1*
X-873332Y-169124D1*
X-875709Y-171500D1*
X-882894Y-173932D1*
X-887647D1*
X-894832Y-171500D1*
X-899640Y-166747D1*
X-902017Y-159562D1*
Y-152377D1*
X-899640Y-145247D1*
X-897208Y-142871D1*
X-892455Y-140439D1*
X-1475472Y-117963D2*
Y-96463D1*
X-1477904Y-89278D1*
X-1480281Y-86846D1*
X-1485034Y-84470D1*
X-1489843D1*
X-1494596Y-86846D1*
X-1497028Y-89278D1*
X-1499404Y-96463D1*
Y-117963D1*
X-1449164D1*
X-1475472Y-101216D2*
X-1449164Y-84470D1*
X-1489787Y-69030D2*
X-1492219Y-64222D1*
X-1499349Y-57037D1*
X-1449164D1*
X-1287972Y-128713D2*
Y-107213D1*
X-1290404Y-100028D1*
X-1292781Y-97596D1*
X-1297534Y-95220D1*
X-1302343D1*
X-1307096Y-97596D1*
X-1309528Y-100028D1*
X-1311904Y-107213D1*
Y-128713D1*
X-1261664D1*
X-1287972Y-111966D2*
X-1261664Y-95220D1*
X-1299911Y-77349D2*
X-1302287D1*
X-1307096Y-74972D1*
X-1309472Y-72595D1*
X-1311849Y-67787D1*
Y-58225D1*
X-1309472Y-53472D1*
X-1307096Y-51095D1*
X-1302287Y-48664D1*
X-1297534D1*
X-1292726Y-51095D1*
X-1285596Y-55849D1*
X-1261664Y-79780D1*
Y-46287D1*
X-1628716Y150471D2*
X-1607216Y150472D1*
X-1600031Y152904D1*
X-1597599Y155281D1*
X-1595223Y160034D1*
Y164842D1*
X-1597600Y169595D1*
X-1600032Y172027D1*
X-1607217Y174404D1*
X-1628717Y174403D1*
X-1628715Y124163D1*
X-1611969Y150472D2*
X-1595222Y124164D1*
X-1574976Y174349D2*
X-1548723Y174350D1*
X-1563037Y155226D1*
X-1555852Y155227D1*
X-1551099Y152850D1*
X-1548722Y150474D1*
X-1546290Y143289D1*
Y138535D1*
X-1548721Y131350D1*
X-1553474Y126542D1*
X-1560659Y124165D1*
X-1567844D1*
X-1574974Y126541D1*
X-1577351Y128973D1*
X-1579783Y133726D1*
X-1542402Y475466D2*
X-1520902Y475469D1*
X-1513717Y477902D1*
X-1511286Y480279D1*
X-1508910Y485033D1*
X-1508911Y489841D1*
X-1511288Y494594D1*
X-1513720Y497026D1*
X-1520905Y499401D1*
X-1542405Y499398D1*
X-1542398Y449158D1*
X-1525655Y475469D2*
X-1508905Y449163D1*
X-1469534Y449169D2*
X-1469541Y499353D1*
X-1493468Y465912D1*
X-1457598Y465917D1*
X-1053717Y729112D2*
X-1032218Y729113D1*
X-1025033Y731546D1*
X-1022601Y733922D1*
X-1020224Y738675D1*
X-1020225Y743484D1*
X-1022601Y748237D1*
X-1025033Y750669D1*
X-1032219Y753045D1*
X-1053718Y753044D1*
X-1053716Y702804D1*
X-1036971Y729113D2*
X-1020223Y702806D1*
X-976101Y752992D2*
X-999977Y752991D1*
X-1002353Y731491D1*
X-999977Y733868D1*
X-992792Y736300D1*
X-985662D1*
X-978477Y733869D1*
X-973668Y729116D1*
X-971291Y721931D1*
Y717178D1*
X-973667Y709993D1*
X-978475Y705184D1*
X-985660Y702807D1*
X-992790D1*
X-999975Y705183D1*
X-1002352Y707615D1*
X-1004784Y712368D1*
X-1615006Y662969D2*
X-1593506Y662971D1*
X-1586321Y665403D1*
X-1583890Y667780D1*
X-1581513Y672534D1*
X-1581514Y677342D1*
X-1583891Y682095D1*
X-1586323Y684527D1*
X-1593508Y686903D1*
X-1615008Y686901D1*
X-1615004Y636661D1*
X-1598259Y662970D2*
X-1581510Y636664D1*
X-1537390Y679722D2*
X-1539767Y684475D1*
X-1546952Y686851D1*
X-1551705D1*
X-1558890Y684474D1*
X-1563698Y677288D1*
X-1566074Y665350D1*
X-1566072Y653412D1*
X-1563695Y643850D1*
X-1558886Y639042D1*
X-1551701Y636666D1*
X-1549324D1*
X-1542195Y639044D1*
X-1537387Y643853D1*
X-1535011Y651038D1*
Y653414D1*
X-1537388Y660599D1*
X-1542197Y665352D1*
X-1549327Y667728D1*
X-1551704D1*
X-1558888Y665350D1*
X-1563697Y660597D1*
X-1566072Y653412D1*
X-1950472Y-1003715D2*
Y-982215D1*
X-1952904Y-975030D1*
X-1955281Y-972598D1*
X-1960034Y-970222D1*
X-1964842D1*
X-1969596Y-972598D1*
X-1972027Y-975030D1*
X-1974404Y-982215D1*
X-1974403Y-1003715D1*
X-1924163Y-1003714D1*
X-1950472Y-986968D2*
X-1924164Y-970221D1*
Y-945220D2*
X-1974350Y-921289D1*
X-1974349Y-954783D1*
X-1762972Y-1003687D2*
Y-982187D1*
X-1765404Y-975002D1*
X-1767781Y-972571D1*
X-1772534Y-970194D1*
X-1777342D1*
X-1782096Y-972571D1*
X-1784527Y-975003D1*
X-1786904Y-982188D1*
X-1786903Y-1003688D1*
X-1736663Y-1003687D1*
X-1762972Y-986941D2*
X-1736664Y-970193D1*
X-1786849Y-942817D2*
X-1784473Y-949947D1*
X-1779719Y-952378D1*
X-1774911D1*
X-1770158Y-949946D1*
X-1767726Y-945193D1*
X-1765350Y-935631D1*
X-1762973Y-928446D1*
X-1758165Y-923693D1*
X-1753412Y-921316D1*
X-1746227D1*
X-1741473Y-923693D1*
X-1739041Y-926069D1*
X-1736665Y-933254D1*
Y-942816D1*
X-1739041Y-949946D1*
X-1741473Y-952378D1*
X-1746226Y-954754D1*
X-1753411D1*
X-1758164Y-952378D1*
X-1762973Y-947570D1*
X-1765349Y-940440D1*
X-1767726Y-930878D1*
X-1770158Y-926070D1*
X-1774911Y-923693D1*
X-1779720D1*
X-1784473Y-926070D1*
X-1786849Y-933255D1*
Y-942817D1*
X-200472Y-340025D2*
Y-318525D1*
X-202904Y-311340D1*
X-205281Y-308908D1*
X-210034Y-306531D1*
X-214843D1*
X-219596Y-308908D1*
X-222028Y-311340D1*
X-224404Y-318525D1*
Y-340025D1*
X-174164D1*
X-200472Y-323278D2*
X-174164Y-306531D1*
X-207658Y-259975D2*
X-200472Y-262407D1*
X-195664Y-267160D1*
X-193287Y-274345D1*
Y-276722D1*
X-195664Y-283907D1*
X-200472Y-288660D1*
X-207658Y-291092D1*
X-210034D1*
X-217219Y-288660D1*
X-221972Y-283907D1*
X-224349Y-276722D1*
Y-274345D1*
X-221972Y-267160D1*
X-217219Y-262407D1*
X-207658Y-259975D1*
X-195664D1*
X-183726Y-262407D1*
X-176541Y-267160D1*
X-174164Y-274345D1*
Y-279099D1*
X-176541Y-286284D1*
X-181349Y-288660D1*
X-795071Y-1275472D2*
X-816571D1*
X-823756Y-1277904D1*
X-826187Y-1280281D1*
X-828564Y-1285034D1*
Y-1289843D1*
X-826187Y-1294596D1*
X-823756Y-1297028D1*
X-816571Y-1299404D1*
X-795071D1*
Y-1249164D1*
X-811817Y-1275472D2*
X-828564Y-1249164D1*
X-844003Y-1289787D2*
X-848812Y-1292219D1*
X-855997Y-1299349D1*
Y-1249164D1*
X-885806Y-1299349D2*
X-878621Y-1296972D1*
X-873813Y-1289787D1*
X-871436Y-1277849D1*
Y-1270664D1*
X-873813Y-1258726D1*
X-878621Y-1251541D1*
X-885806Y-1249164D1*
X-890559D1*
X-897744Y-1251541D1*
X-902497Y-1258726D1*
X-904929Y-1270664D1*
Y-1277849D1*
X-902497Y-1289787D1*
X-897744Y-1296972D1*
X-890559Y-1299349D1*
X-885806D1*
X-902497Y-1289787D2*
X-873813Y-1258726D1*
X-187973Y405823D2*
Y427323D1*
X-190405Y434508D1*
X-192781Y436940D1*
X-197534Y439316D1*
X-202343Y439317D1*
X-207096Y436940D1*
X-209528Y434508D1*
X-211905Y427323D1*
Y405823D1*
X-161665Y405822D1*
X-187973Y422570D2*
X-161664Y439316D1*
X-202287Y454756D2*
X-204719Y459564D1*
X-211849Y466750D1*
X-161664Y466748D1*
X-202287Y482189D2*
X-204718Y486997D1*
X-211848Y494182D1*
X-161663Y494181D1*
X-56789Y-1079929D2*
Y-1058429D1*
X-59221Y-1051244D1*
X-61598Y-1048813D1*
X-66351Y-1046436D1*
X-71159D1*
X-75913Y-1048813D1*
X-78345Y-1051244D1*
X-80721Y-1058429D1*
Y-1079929D1*
X-30481D1*
X-56789Y-1063183D2*
X-30481Y-1046436D1*
X-71104Y-1030997D2*
X-73536Y-1026188D1*
X-80666Y-1019003D1*
X-30481D1*
X-68728Y-1001132D2*
X-71104D1*
X-75913Y-998756D1*
X-78289Y-996379D1*
X-80666Y-991571D1*
Y-982009D1*
X-78289Y-977256D1*
X-75913Y-974879D1*
X-71104Y-972447D1*
X-66351D1*
X-61543Y-974879D1*
X-54413Y-979632D1*
X-30481Y-1003564D1*
Y-970071D1*
X-988909Y-669341D2*
X-1039149D1*
X-988909Y-652595D2*
Y-686088D1*
X-998526Y-701527D2*
X-996095Y-706336D1*
X-988965Y-713521D1*
X-1039149D1*
X-1063223Y328102D2*
X-1027353Y328103D1*
X-1020168Y330479D1*
X-1015415Y335288D1*
X-1012983Y342473D1*
Y347226D1*
X-1015415Y354411D1*
X-1020168Y359220D1*
X-1027353Y361596D1*
X-1063223Y361595D1*
X-1053607Y377035D2*
X-1056038Y381843D1*
X-1063168Y389028D1*
X-1012984Y389029D1*
X-312267Y-608783D2*
X-348137Y-608784D1*
X-355322Y-611160D1*
X-360075Y-615969D1*
X-362507Y-623154D1*
Y-627907D1*
X-360075Y-635092D1*
X-355322Y-639901D1*
X-348137Y-642277D1*
X-312267Y-642276D1*
X-324260Y-660147D2*
X-321883D1*
X-317075Y-662524D1*
X-314698Y-664900D1*
X-312321Y-669709D1*
Y-679270D1*
X-314697Y-684024D1*
X-317074Y-686400D1*
X-321882Y-688832D1*
X-326636D1*
X-331444Y-686401D1*
X-338574Y-681648D1*
X-362506Y-657717D1*
X-362505Y-691210D1*
X-1792261Y-161777D2*
X-1773138Y-212017D1*
X-1754015Y-161777D1*
X-1724205D2*
X-1729014Y-164154D1*
X-1733767Y-168962D1*
X-1736199Y-173715D1*
X-1738575Y-180900D1*
Y-192894D1*
X-1736199Y-200023D1*
X-1733767Y-204832D1*
X-1729014Y-209585D1*
X-1724205Y-212017D1*
X-1714644D1*
X-1709891Y-209585D1*
X-1705082Y-204832D1*
X-1702706Y-200023D1*
X-1700329Y-192894D1*
Y-180900D1*
X-1702706Y-173715D1*
X-1705082Y-168962D1*
X-1709891Y-164154D1*
X-1714644Y-161777D1*
X-1724205D1*
X-1684890Y-171394D2*
X-1680081Y-168962D1*
X-1672896Y-161832D1*
Y-212017D1*
M02*
